<?xml version="1.0" encoding="UTF-8"?>
<!DOCTYPE svg PUBLIC "-//W3C//DTD SVG 1.1//EN" "http://www.w3.org/Graphics/SVG/1.1/DTD/svg11.dtd">
<!-- Creator: CorelDRAW 2021 (64 Bit) -->
<svg xmlns="http://www.w3.org/2000/svg" xml:space="preserve" width="3224px" height="3224px" version="1.1" style="shape-rendering:geometricPrecision; text-rendering:geometricPrecision; image-rendering:optimizeQuality; fill-rule:evenodd; clip-rule:evenodd"
viewBox="0 0 3224 3224"
 xmlns:xlink="http://www.w3.org/1999/xlink"
 xmlns:xodm="http://www.corel.com/coreldraw/odm/2003">
 <defs>
  <style type="text/css">
   <![CDATA[
    .fil0 {fill:#00D1F7;fill-rule:nonzero}
   ]]>
  </style>
 </defs>
 <g id="Camada_x0020_1">
  <metadata id="CorelCorpID_0Corel-Layer"/>
  <g id="_2138051763200">
   <polygon class="fil0" points="1820.56,905.52 1509.67,905.52 1437.36,1366.92 1570.82,1366.92 1520.23,1760.19 1847.07,1239.13 1661.1,1239.13 "/>
   <path class="fil0" d="M2331.97 917.62c-39.46,-46.34 -92,-79.59 -150.15,-95.39 0.58,-5.8 0.85,-11.65 0.85,-17.5 0,-97.49 -79.29,-176.79 -176.75,-176.79 -12.34,0 -24.51,1.28 -36.43,3.8 -54.54,-104.38 -162.61,-170.6 -281.79,-170.6 -99.62,0 -192.22,46.11 -252.28,124.46 -30.21,-12.16 -62.12,-18.29 -95.19,-18.29 -67.34,0 -131.01,25.93 -179.17,73.04 -43.35,42.41 -69.95,97.7 -75.93,157.43 -55.75,21.45 -105.41,58.94 -141.29,107.05 -41.1,55.2 -62.88,120.84 -62.88,189.88 0,175.26 142.57,317.83 317.86,317.83l148.54 0c15.41,0 27.91,-12.47 27.91,-27.91l0 -366.09c22.9,-10.55 38.82,-33.7 38.82,-60.6 0,-36.83 -29.84,-66.71 -66.73,-66.71 -36.88,0 -66.73,29.85 -66.73,66.71 0,26.9 15.93,50.05 38.83,60.6l0 338.22 -85.33 0 0 -168.63c22.93,-10.55 38.86,-33.69 38.86,-60.57 0,-36.85 -29.85,-66.73 -66.74,-66.73 -36.88,0 -66.73,29.85 -66.73,66.73 0,26.88 15.93,50.02 38.83,60.57l0 167.84c-134.98,-10.44 -241.7,-123.64 -241.7,-261.26 0,-115.11 73.74,-215.61 183.49,-250.07 11.4,-3.58 19.26,-13.98 19.5,-25.9 2.73,-109.69 90.82,-195.59 200.57,-195.59 32.3,0 63.12,7.49 91.75,22.24 12.71,6.52 28.31,2.42 36.1,-9.53 48.68,-74.44 130.73,-118.93 219.55,-118.93 105.1,0 199.74,62.45 241.06,159.06 5.85,13.65 21.35,20.36 35.31,15.2 13.37,-4.94 27.42,-7.43 41.86,-7.43 66.73,0 120.96,54.29 120.96,120.97 0,10.64 -1.39,21.32 -4.21,31.61 -2.04,7.58 -0.82,15.65 3.39,22.26 4.22,6.64 11.05,11.16 18.78,12.5 117.48,20.23 202.81,121.6 202.81,241.02 0,129.19 -100.92,236.42 -229.74,244.12 -1.28,0.1 -2.49,0.25 -3.67,0.46l-8.26 0 0 -168.59c22.91,-10.59 38.83,-33.7 38.83,-60.61 0,-36.82 -29.85,-66.73 -66.73,-66.73 -36.89,0 -66.73,29.85 -66.73,66.73 0,26.91 15.92,50.02 38.82,60.61l0 168.59 -85.32 0 0 -338.18c22.93,-10.59 38.82,-33.7 38.82,-60.61 0,-36.82 -29.81,-66.73 -66.7,-66.73 -36.88,0 -66.73,29.84 -66.73,66.73 0,26.91 15.92,50.02 38.82,60.61l0 366.09c0,15.41 12.47,27.87 27.91,27.87l182.42 0c2.46,0 4.86,-0.3 7.19,-0.94 155.61,-12.1 276.79,-142.59 276.79,-299.42 0,-71.25 -25.42,-140.35 -71.49,-194.55l0.18 0.06 -0.01 -0.01z"/>
   <polygon class="fil0" points="272.23,2191.71 159.06,2139.87 159.06,2074.5 272.57,2022.99 289.49,2072.8 197.01,2107.35 289.49,2141.57 "/>
   <path class="fil0" d="M318.92 2222.55l0 -242.6 106.04 0c42.71,0 75.56,10.46 98.58,31.37 23.06,20.86 34.58,50.86 34.58,89.93 0,38.86 -11.52,68.77 -34.58,89.79 -23.02,20.99 -55.87,31.51 -98.58,31.51l-106.04 0 0 0zm71.49 -57.6l34.55 0c18.99,0 33.61,-5.49 43.89,-16.44 10.26,-10.95 15.41,-26.69 15.41,-47.26 0,-20.56 -5.15,-36.31 -15.41,-47.25 -10.28,-10.95 -24.9,-16.44 -43.89,-16.44l-34.55 0 0 127.39 0 0z"/>
   <polygon class="fil0" points="584.79,2222.55 584.79,1979.95 757.93,1979.95 757.93,2037.55 656.28,2037.55 656.28,2074.14 744.37,2074.14 744.37,2123.94 656.28,2123.94 656.28,2164.95 761.33,2164.95 761.33,2222.55 "/>
   <polygon class="fil0" points="855.42,2222.55 769.36,1979.95 845.95,1979.95 897.79,2160.55 898.46,2160.55 950.3,1979.95 1026.86,1979.95 940.81,2222.55 "/>
   <polygon class="fil0" points="1110.79,2222.55 1110.79,1979.95 1283.57,1979.95 1283.57,2042.65 1184.99,2042.65 1184.99,2085.33 1263.58,2085.33 1263.58,2140.2 1184.99,2140.2 1184.99,2222.55 "/>
   <path class="fil0" d="M1490.84 2227.96c-13.08,0 -24.39,-3.68 -33.86,-11.02 -9.49,-7.34 -16.16,-17.44 -20.02,-30.3l-8.12 -27.45c-1.79,-6.34 -4.62,-11.68 -8.47,-16.11 -3.82,-4.39 -9.04,-6.58 -15.59,-6.58l-24.05 0 0 86.06 -74.2 0 0 -242.61 127.07 0c30.69,0 54.54,6.8 71.49,20.36 16.93,13.52 25.39,32.73 25.39,57.57 0,15.59 -4.61,29.21 -13.89,40.83 -9.25,11.64 -22.24,20.05 -38.95,25.23l0 0.37c6.1,2.24 10.77,5.52 14.05,9.8 3.27,4.3 5.94,9.82 7.97,16.62l6.1 20.66c1.12,3.39 2.7,6.27 4.73,8.64 2.04,2.37 4.74,3.55 8.13,3.55 2.73,0 5.37,-0.67 7.98,-2.03 2.58,-1.37 4.79,-2.83 6.61,-4.4l11.5 33.18c-6.31,5.43 -14.23,9.74 -23.72,12.89 -9.46,3.16 -19.53,4.74 -30.15,4.74l0 0zm-110.11 -138.57l41.68 0c10.61,0 18.98,-2.55 25.08,-7.61 6.1,-5.1 9.13,-12.04 9.13,-20.84 0,-9.04 -3.03,-16.05 -9.13,-21.02 -6.1,-4.97 -14.47,-7.43 -25.08,-7.43l-41.68 0 0 56.9z"/>
   <path class="fil0" d="M1693.04 2231.02c-27.33,0 -51.3,-5.37 -71.83,-16.11 -20.57,-10.71 -36.49,-25.84 -47.78,-45.38 -11.28,-19.56 -16.95,-42.31 -16.95,-68.28 0,-26.2 5.67,-49.02 16.95,-68.43 11.29,-19.44 27.21,-34.52 47.78,-45.23 20.53,-10.73 44.5,-16.1 71.83,-16.1 27.54,0 51.53,5.37 71.98,16.1 20.44,10.71 36.31,25.79 47.62,45.23 11.29,19.41 16.93,42.23 16.93,68.43 0,25.97 -5.64,48.72 -16.93,68.28 -11.31,19.54 -27.18,34.67 -47.62,45.38 -20.45,10.74 -44.44,16.11 -71.98,16.11zm0 -63.03c18.95,0 34.09,-6.1 45.38,-18.29 11.31,-12.2 16.95,-28.34 16.95,-48.45 0,-20.32 -5.64,-36.58 -16.95,-48.77 -11.29,-12.19 -26.42,-18.29 -45.38,-18.29 -18.99,0 -34.13,6.1 -45.41,18.29 -11.29,12.19 -16.93,28.45 -16.93,48.77 0,20.11 5.64,36.25 16.93,48.45 11.28,12.19 26.42,18.29 45.41,18.29z"/>
   <polygon class="fil0" points="1856.23,2222.55 1856.23,1979.95 1940.25,1979.95 2025.64,2135.47 2026.31,2135.47 2026.31,1979.95 2095.07,1979.95 2095.07,2222.55 2011.05,2222.55 1925.69,2067.37 1924.99,2067.37 1924.99,2222.55 "/>
   <polygon class="fil0" points="2124.47,2150.03 2124.47,2108.38 2234.24,2108.38 2234.24,2150.03 "/>
   <polygon class="fil0" points="2263.66,2222.55 2263.66,1979.95 2436.81,1979.95 2436.81,2037.55 2335.16,2037.55 2335.16,2074.14 2423.25,2074.14 2423.25,2123.94 2335.16,2123.94 2335.16,2164.95 2440.2,2164.95 2440.2,2222.55 "/>
   <polygon class="fil0" points="2465.2,2222.55 2465.2,1979.95 2549.22,1979.95 2634.61,2135.47 2635.28,2135.47 2635.28,1979.95 2704.04,1979.95 2704.04,2222.55 2620.02,2222.55 2534.66,2067.37 2533.96,2067.37 2533.96,2222.55 "/>
   <path class="fil0" d="M2739.2 2222.55l0 -242.6 106.04 0c42.68,0 75.56,10.46 98.58,31.37 23.06,20.86 34.55,50.86 34.55,89.93 0,38.86 -11.49,68.77 -34.55,89.79 -23.02,20.99 -55.9,31.51 -98.58,31.51l-106.04 0zm71.49 -57.6l34.55 0c18.96,0 33.61,-5.49 43.86,-16.44 10.28,-10.95 15.44,-26.69 15.44,-47.26 0,-20.56 -5.16,-36.31 -15.44,-47.25 -10.25,-10.95 -24.9,-16.44 -43.86,-16.44l-34.55 0 0 127.39 0 0z"/>
   <polygon class="fil0" points="3016.59,2022.99 3129.74,2074.83 3129.74,2140.2 3016.26,2191.71 2999.3,2141.9 3092.15,2107.35 2999.3,2073.13 "/>
   <path class="fil0" d="M1019.37 2440.92c-8.92,0 -16.14,-2.21 -21.72,-6.67 -5.61,-4.43 -9.16,-10.68 -10.65,-18.68l14.26 -5.28c0.79,5.37 2.73,9.55 5.82,12.56 3.07,2.97 7.01,4.49 11.74,4.49 4.67,0 8.28,-1.52 10.83,-4.55 2.58,-3.07 3.85,-7.35 3.85,-12.9l0 -65.52 16.63 0 0 66.71c0,9.43 -2.73,16.77 -8.19,21.99 -5.46,5.24 -12.99,7.85 -22.57,7.85l0 0z"/>
   <path class="fil0" d="M1155.53 2441.32c-10.31,0 -19.26,-2.06 -26.87,-6.19 -7.61,-4.16 -13.56,-9.98 -17.78,-17.5 -4.21,-7.52 -6.34,-16.32 -6.34,-26.36 0,-10.13 2.13,-18.93 6.34,-26.42 4.22,-7.49 10.17,-13.32 17.78,-17.5 7.61,-4.19 16.56,-6.28 26.87,-6.28 10.29,0 19.3,2.09 26.94,6.28 7.67,4.18 13.62,10.01 17.84,17.5 4.21,7.49 6.34,16.29 6.34,26.42 0,10.04 -2.13,18.84 -6.34,26.36 -4.22,7.52 -10.17,13.35 -17.84,17.5 -7.64,4.12 -16.65,6.19 -26.94,6.19zm0 -14.26c6.95,0 13.02,-1.48 18.23,-4.49 5.19,-3 9.22,-7.16 12.08,-12.56 2.88,-5.37 4.3,-11.61 4.3,-18.74 0,-7.22 -1.42,-13.5 -4.3,-18.81 -2.86,-5.34 -6.89,-9.49 -12.08,-12.5 -5.21,-3 -11.28,-4.49 -18.23,-4.49 -6.97,0 -13.04,1.49 -18.23,4.49 -5.18,3.01 -9.22,7.16 -12.07,12.5 -2.88,5.31 -4.31,11.59 -4.31,18.81 0,7.13 1.43,13.37 4.31,18.74 2.85,5.4 6.89,9.56 12.07,12.56 5.19,3 11.26,4.49 18.23,4.49z"/>
   <path class="fil0" d="M1311.08 2335c-2.97,0 -5.43,-0.91 -7.31,-2.7 -1.91,-1.82 -3.64,-3.67 -5.21,-5.61 -1.25,-1.52 -2.49,-2.79 -3.71,-3.91 -1.24,-1.1 -2.64,-1.64 -4.24,-1.64 -2.19,0 -4.01,1.18 -5.4,3.55 -1.43,2.39 -2.13,5.37 -2.13,9.01l-4.88 0c0,-5.13 1.15,-9.32 3.52,-12.62 2.3,-3.31 5.37,-4.98 9.16,-4.98 2.82,0 5.09,0.82 6.86,2.46 1.76,1.64 3.39,3.37 4.91,5.22 1.3,1.66 2.61,3.12 3.88,4.36 1.28,1.22 2.76,1.85 4.43,1.85 2.37,0 4.28,-1.21 5.73,-3.57 1.46,-2.37 2.19,-5.43 2.19,-9.14l5.15 0c0,5.13 -1.21,9.35 -3.64,12.68 -2.42,3.37 -5.52,5.04 -9.31,5.04zm-55.2 103.04l35.12 -93.67 20.08 0 34.88 93.67 -17.32 0 -7.25 -20.47 -40.82 0 -7.37 20.47 -17.33 0 0.01 0zm28.27 -33.3l33.54 0 -16.5 -46.08 -0.27 0 -16.77 46.08 0 0z"/>
   <path class="fil0" d="M1446.19 2441.32c-10.29,0 -19.27,-2.06 -26.88,-6.19 -7.61,-4.16 -13.53,-9.98 -17.77,-17.5 -4.22,-7.52 -6.34,-16.32 -6.34,-26.36 0,-10.13 2.12,-18.93 6.34,-26.42 4.24,-7.49 10.16,-13.32 17.77,-17.5 7.61,-4.19 16.59,-6.28 26.88,-6.28 10.31,0 19.29,2.09 26.96,6.28 7.65,4.18 13.59,10.01 17.81,17.5 4.24,7.49 6.34,16.29 6.34,26.42 0,10.04 -2.1,18.84 -6.34,26.36 -4.22,7.52 -10.16,13.35 -17.81,17.5 -7.67,4.12 -16.65,6.19 -26.96,6.19zm0 -14.26c6.97,0 13.04,-1.48 18.23,-4.49 5.18,-3 9.22,-7.16 12.1,-12.56 2.85,-5.37 4.28,-11.61 4.28,-18.74 0,-7.22 -1.43,-13.5 -4.28,-18.81 -2.88,-5.34 -6.92,-9.49 -12.1,-12.5 -5.19,-3 -11.26,-4.49 -18.23,-4.49 -6.95,0 -13.02,1.49 -18.23,4.49 -5.19,3.01 -9.22,7.16 -12.07,12.5 -2.86,5.31 -4.31,11.59 -4.31,18.81 0,7.13 1.45,13.37 4.31,18.74 2.85,5.4 6.88,9.56 12.07,12.56 5.21,3 11.28,4.49 18.23,4.49z"/>
   <path class="fil0" d="M1629.76 2438.04l0 -93.67 36.07 0c16.02,0 28.33,4.07 36.91,12.17 8.59,8.1 12.86,19.68 12.86,34.73 0,14.98 -4.27,26.51 -12.86,34.61 -8.58,8.1 -20.89,12.16 -36.91,12.16l-36.07 0 0 0zm16.11 -13.74l19.96 0c10.74,0 18.96,-2.85 24.69,-8.52 5.73,-5.67 8.58,-13.86 8.58,-24.51 0,-10.74 -2.85,-18.96 -8.58,-24.63 -5.73,-5.67 -13.95,-8.52 -24.69,-8.52l-19.96 0 0 66.18z"/>
   <path class="fil0" d="M1764.87 2438.04l35.12 -93.67 20.08 0 34.88 93.67 -17.31 0 -7.26 -20.47 -40.82 0 -7.41 20.47 -17.29 0 0.01 0zm28.27 -33.3l33.55 0 -16.51 -46.08 -0.27 0 -16.77 46.08 0 0z"/>
   <polygon class="fil0" points="1907.49,2438.04 1907.49,2344.37 1927.69,2344.37 1970.89,2417.81 1971.16,2417.81 1971.16,2344.37 1987.15,2344.37 1987.15,2438.04 1966.92,2438.04 1923.6,2364.85 1923.33,2364.85 1923.33,2438.04 "/>
   <polygon class="fil0" points="2046.3,2438.04 2046.3,2344.37 2062.68,2344.37 2062.68,2438.04 "/>
   <polygon class="fil0" points="2121.86,2438.04 2121.86,2344.37 2186.71,2344.37 2186.71,2358.11 2137.69,2358.11 2137.69,2383.62 2181.43,2383.62 2181.43,2396.15 2137.69,2396.15 2137.69,2424.3 2188.01,2424.3 2188.01,2438.04 "/>
   <polygon class="fil0" points="2242.55,2438.04 2242.55,2344.37 2258.93,2344.37 2258.93,2423.75 2302.52,2423.75 2302.52,2438.04 "/>
  </g>
 </g>
</svg>
