<?xml version="1.0" encoding="UTF-8"?>
<!DOCTYPE svg PUBLIC "-//W3C//DTD SVG 1.1//EN" "http://www.w3.org/Graphics/SVG/1.1/DTD/svg11.dtd">
<!-- Creator: CorelDRAW 2021 (64 Bit) -->
<svg xmlns="http://www.w3.org/2000/svg" xml:space="preserve" width="2480px" height="2480px" version="1.1" style="shape-rendering:geometricPrecision; text-rendering:geometricPrecision; image-rendering:optimizeQuality; fill-rule:evenodd; clip-rule:evenodd"
viewBox="0 0 2480 2480"
 xmlns:xlink="http://www.w3.org/1999/xlink"
 xmlns:xodm="http://www.corel.com/coreldraw/odm/2003">
 <defs>
  <style type="text/css">
   <![CDATA[
    .fil0 {fill:black;fill-rule:nonzero}
   ]]>
  </style>
 </defs>
 <g id="Camada_x0020_1">
  <metadata id="CorelCorpID_0Corel-Layer"/>
  <g id="_2138051763200">
   <polygon class="fil0" points="1371.43,831.08 1137.99,831.08 1083.7,1177.54 1183.91,1177.54 1145.92,1472.83 1391.34,1081.58 1251.7,1081.58 "/>
   <path class="fil0" d="M1755.44 840.17c-29.63,-34.8 -69.08,-59.76 -112.75,-71.63 0.44,-4.35 0.64,-8.74 0.64,-13.14 0,-73.2 -59.54,-132.74 -132.72,-132.74 -9.26,0 -18.4,0.96 -27.35,2.85 -40.95,-78.38 -122.1,-128.1 -211.59,-128.1 -74.8,0 -144.33,34.62 -189.43,93.45 -22.68,-9.13 -46.64,-13.73 -71.47,-13.73 -50.57,0 -98.38,19.47 -134.54,54.84 -32.55,31.85 -52.52,73.36 -57.01,118.21 -41.86,16.11 -79.15,44.26 -106.09,80.38 -30.86,41.45 -47.22,90.74 -47.22,142.58 0,131.6 107.05,238.65 238.67,238.65l111.54 0c11.57,0 20.96,-9.36 20.96,-20.96l0 -274.88c17.19,-7.93 29.15,-25.31 29.15,-45.51 0,-27.65 -22.41,-50.09 -50.11,-50.09 -27.69,0 -50.11,22.42 -50.11,50.09 0,20.2 11.97,37.58 29.16,45.51l0 253.96 -64.07 0 0 -126.62c17.22,-7.92 29.18,-25.3 29.18,-45.48 0,-27.67 -22.42,-50.11 -50.12,-50.11 -27.69,0 -50.1,22.41 -50.1,50.11 0,20.18 11.96,37.56 29.15,45.48l0 126.02c-101.35,-7.84 -181.48,-92.83 -181.48,-196.17 0,-86.43 55.37,-161.89 137.78,-187.77 8.56,-2.69 14.46,-10.5 14.64,-19.45 2.05,-82.36 68.19,-146.86 150.6,-146.86 24.25,0 47.4,5.62 68.89,16.7 9.55,4.89 21.26,1.82 27.11,-7.16 36.55,-55.89 98.16,-89.3 164.85,-89.3 78.92,0 149.98,46.89 181.01,119.44 4.39,10.24 16.03,15.28 26.51,11.41 10.04,-3.71 20.59,-5.58 31.44,-5.58 50.1,0 90.82,40.76 90.82,90.83 0,7.99 -1.04,16.01 -3.16,23.74 -1.53,5.69 -0.62,11.75 2.54,16.71 3.17,4.99 8.3,8.38 14.11,9.39 88.21,15.19 152.28,91.3 152.28,180.97 0,97.01 -75.78,177.52 -172.51,183.31 -0.96,0.07 -1.86,0.18 -2.75,0.34l-6.2 0 0 -126.59c17.2,-7.95 29.15,-25.3 29.15,-45.51 0,-27.65 -22.41,-50.1 -50.1,-50.1 -27.7,0 -50.11,22.41 -50.11,50.1 0,20.21 11.96,37.56 29.15,45.51l0 126.59 -64.06 0 0 -253.93c17.21,-7.95 29.15,-25.3 29.15,-45.51 0,-27.65 -22.39,-50.1 -50.09,-50.1 -27.69,0 -50.1,22.4 -50.1,50.1 0,20.21 11.95,37.56 29.14,45.51l0 274.89c0,11.57 9.37,20.92 20.96,20.92l136.98 0c1.84,0 3.65,-0.22 5.4,-0.7 116.84,-9.09 207.83,-107.07 207.83,-224.83 0,-53.5 -19.09,-105.38 -53.68,-146.08l0.13 0.05 0 -0.01 0 0z"/>
   <polygon class="fil0" points="208.83,1796.85 123.86,1757.92 123.86,1708.84 209.09,1670.16 221.79,1707.56 152.35,1733.5 221.79,1759.2 "/>
   <path class="fil0" d="M243.89 1820l0 -182.16 79.62 0c32.07,0 56.74,7.86 74.02,23.56 17.32,15.66 25.97,38.19 25.97,67.52 0,29.18 -8.65,51.64 -25.97,67.43 -17.28,15.76 -41.95,23.65 -74.02,23.65l-79.62 0 0 0zm53.68 -43.25l25.94 0c14.26,0 25.24,-4.12 32.96,-12.34 7.7,-8.22 11.57,-20.04 11.57,-35.49 0,-15.43 -3.87,-27.26 -11.57,-35.47 -7.72,-8.23 -18.7,-12.35 -32.96,-12.35l-25.94 0 0 95.65 0 0 0 0z"/>
   <polygon class="fil0" points="443.53,1820 443.53,1637.84 573.53,1637.84 573.53,1681.09 497.21,1681.09 497.21,1708.57 563.35,1708.57 563.35,1745.96 497.21,1745.96 497.21,1776.75 576.09,1776.75 576.09,1820 "/>
   <polygon class="fil0" points="646.73,1820 582.12,1637.84 639.62,1637.84 678.55,1773.45 679.05,1773.45 717.98,1637.84 775.46,1637.84 710.85,1820 "/>
   <polygon class="fil0" points="838.49,1820 838.49,1637.84 968.22,1637.84 968.22,1684.92 894.2,1684.92 894.2,1716.97 953.21,1716.97 953.21,1758.17 894.2,1758.17 894.2,1820 "/>
   <path class="fil0" d="M1123.85 1824.07c-9.82,0 -18.31,-2.77 -25.42,-8.28 -7.13,-5.51 -12.13,-13.09 -15.03,-22.75l-6.1 -20.61c-1.34,-4.76 -3.47,-8.77 -6.36,-12.1 -2.87,-3.29 -6.79,-4.94 -11.71,-4.94l-18.05 0 0 64.62 -55.72 0 0 -182.17 95.41 0c23.05,0 40.96,5.11 53.68,15.29 12.72,10.15 19.07,24.58 19.07,43.23 0,11.7 -3.46,21.93 -10.43,30.66 -6.95,8.74 -16.7,15.05 -29.25,18.94l0 0.28c4.58,1.68 8.09,4.14 10.55,7.36 2.46,3.23 4.46,7.37 5.99,12.48l4.58 15.51c0.84,2.55 2.02,4.71 3.55,6.49 1.53,1.78 3.56,2.66 6.1,2.66 2.05,0 4.04,-0.5 6,-1.52 1.93,-1.03 3.59,-2.13 4.96,-3.3l8.63 24.91c-4.73,4.08 -10.68,7.31 -17.81,9.68 -7.1,2.37 -14.66,3.56 -22.64,3.56l0 0 0 0zm-82.67 -104.05l31.29 0c7.97,0 14.25,-1.92 18.83,-5.72 4.58,-3.83 6.86,-9.04 6.86,-15.64 0,-6.79 -2.28,-12.06 -6.86,-15.79 -4.58,-3.73 -10.86,-5.58 -18.83,-5.58l-31.29 0 0 42.73z"/>
   <path class="fil0" d="M1275.68 1826.36c-20.52,0 -38.52,-4.03 -53.93,-12.09 -15.45,-8.04 -27.4,-19.4 -35.88,-34.08 -8.47,-14.68 -12.73,-31.77 -12.73,-51.27 0,-19.67 4.26,-36.8 12.73,-51.38 8.48,-14.59 20.43,-25.92 35.88,-33.96 15.41,-8.06 33.41,-12.09 53.93,-12.09 20.68,0 38.69,4.03 54.05,12.09 15.35,8.04 27.26,19.37 35.76,33.96 8.47,14.58 12.71,31.71 12.71,51.38 0,19.5 -4.24,36.59 -12.71,51.27 -8.5,14.68 -20.41,26.04 -35.76,34.08 -15.36,8.06 -33.37,12.09 -54.05,12.09zm0 -47.32c14.23,0 25.6,-4.58 34.08,-13.74 8.49,-9.16 12.72,-21.28 12.72,-36.38 0,-15.25 -4.23,-27.46 -12.72,-36.62 -8.48,-9.15 -19.84,-13.73 -34.08,-13.73 -14.26,0 -25.63,4.58 -34.1,13.73 -8.47,9.16 -12.71,21.37 -12.71,36.62 0,15.1 4.24,27.22 12.71,36.38 8.47,9.16 19.84,13.74 34.1,13.74z"/>
   <polygon class="fil0" points="1398.22,1820 1398.22,1637.84 1461.3,1637.84 1525.42,1754.62 1525.92,1754.62 1525.92,1637.84 1577.55,1637.84 1577.55,1820 1514.47,1820 1450.37,1703.48 1449.85,1703.48 1449.85,1820 "/>
   <polygon class="fil0" points="1599.63,1765.55 1599.63,1734.28 1682.05,1734.28 1682.05,1765.55 "/>
   <polygon class="fil0" points="1704.14,1820 1704.14,1637.84 1834.16,1637.84 1834.16,1681.09 1757.83,1681.09 1757.83,1708.57 1823.98,1708.57 1823.98,1745.96 1757.83,1745.96 1757.83,1776.75 1836.7,1776.75 1836.7,1820 "/>
   <polygon class="fil0" points="1855.47,1820 1855.47,1637.84 1918.56,1637.84 1982.68,1754.62 1983.18,1754.62 1983.18,1637.84 2034.81,1637.84 2034.81,1820 1971.73,1820 1907.63,1703.48 1907.1,1703.48 1907.1,1820 "/>
   <path class="fil0" d="M2061.21 1820l0 -182.16 79.63 0c32.04,0 56.73,7.86 74.02,23.56 17.31,15.66 25.94,38.19 25.94,67.52 0,29.18 -8.63,51.64 -25.94,67.43 -17.29,15.76 -41.98,23.65 -74.02,23.65l-79.63 0zm53.68 -43.25l25.95 0c14.23,0 25.23,-4.12 32.93,-12.34 7.72,-8.22 11.59,-20.04 11.59,-35.49 0,-15.43 -3.87,-27.26 -11.59,-35.47 -7.7,-8.23 -18.7,-12.35 -32.93,-12.35l-25.95 0 0 95.65 0 0 0 0z"/>
   <polygon class="fil0" points="2269.5,1670.16 2354.46,1709.09 2354.46,1758.17 2269.25,1796.85 2256.52,1759.45 2326.23,1733.5 2256.52,1707.81 "/>
   <path class="fil0" d="M769.84 1983.97c-6.7,0 -12.12,-1.66 -16.31,-5.01 -4.21,-3.32 -6.88,-8.02 -8,-14.02l10.71 -3.97c0.6,4.04 2.05,7.17 4.37,9.43 2.31,2.23 5.27,3.38 8.82,3.38 3.5,0 6.21,-1.15 8.13,-3.42 1.94,-2.31 2.89,-5.52 2.89,-9.69l0 -49.19 12.49 0 0 50.09c0,7.08 -2.05,12.59 -6.15,16.51 -4.1,3.93 -9.76,5.89 -16.95,5.89l0 0 0 0z"/>
   <path class="fil0" d="M872.08 1984.27c-7.74,0 -14.46,-1.54 -20.18,-4.64 -5.71,-3.13 -10.18,-7.5 -13.35,-13.14 -3.16,-5.65 -4.76,-12.26 -4.76,-19.8 0,-7.6 1.6,-14.21 4.76,-19.84 3.17,-5.62 7.64,-10 13.35,-13.14 5.72,-3.14 12.44,-4.71 20.18,-4.71 7.73,0 14.49,1.57 20.23,4.71 5.76,3.14 10.22,7.52 13.39,13.14 3.16,5.63 4.76,12.24 4.76,19.84 0,7.54 -1.6,14.15 -4.76,19.8 -3.17,5.64 -7.63,10.02 -13.39,13.14 -5.74,3.09 -12.5,4.64 -20.23,4.64zm0 -10.7c5.22,0 9.77,-1.12 13.69,-3.38 3.89,-2.25 6.92,-5.37 9.07,-9.43 2.16,-4.03 3.23,-8.71 3.23,-14.07 0,-5.42 -1.07,-10.13 -3.23,-14.12 -2.15,-4.01 -5.18,-7.13 -9.07,-9.39 -3.92,-2.25 -8.47,-3.37 -13.69,-3.37 -5.23,0 -9.79,1.12 -13.69,3.37 -3.89,2.26 -6.92,5.38 -9.06,9.39 -2.17,3.99 -3.24,8.7 -3.24,14.12 0,5.36 1.07,10.04 3.24,14.07 2.14,4.06 5.17,7.18 9.06,9.43 3.9,2.26 8.46,3.38 13.69,3.38z"/>
   <path class="fil0" d="M988.88 1904.44c-2.23,0 -4.08,-0.68 -5.49,-2.03 -1.44,-1.36 -2.73,-2.75 -3.91,-4.21 -0.94,-1.14 -1.87,-2.09 -2.79,-2.94 -0.93,-0.82 -1.98,-1.23 -3.18,-1.23 -1.65,0 -3.01,0.89 -4.06,2.67 -1.07,1.79 -1.6,4.03 -1.6,6.76l-3.66 0c0,-3.85 0.86,-6.99 2.64,-9.47 1.73,-2.49 4.03,-3.74 6.88,-3.74 2.12,0 3.82,0.62 5.15,1.85 1.32,1.23 2.55,2.53 3.69,3.92 0.97,1.24 1.96,2.34 2.91,3.27 0.96,0.92 2.07,1.39 3.33,1.39 1.78,0 3.21,-0.91 4.3,-2.68 1.1,-1.78 1.64,-4.08 1.64,-6.86l3.87 0c0,3.85 -0.91,7.02 -2.73,9.52 -1.82,2.53 -4.15,3.78 -6.99,3.78l0 0zm-41.45 77.37l26.37 -70.33 15.08 0 26.19 70.33 -13.01 0 -5.44 -15.37 -30.65 0 -5.54 15.37 -13.01 0 0.01 0zm21.23 -25l25.18 0 -12.39 -34.6 -0.2 0 -12.59 34.6 0 0z"/>
   <path class="fil0" d="M1090.33 1984.27c-7.73,0 -14.47,-1.54 -20.19,-4.64 -5.71,-3.13 -10.15,-7.5 -13.34,-13.14 -3.17,-5.65 -4.76,-12.26 -4.76,-19.8 0,-7.6 1.59,-14.21 4.76,-19.84 3.19,-5.62 7.63,-10 13.34,-13.14 5.72,-3.14 12.46,-4.71 20.19,-4.71 7.74,0 14.48,1.57 20.24,4.71 5.75,3.14 10.21,7.52 13.37,13.14 3.19,5.63 4.76,12.24 4.76,19.84 0,7.54 -1.57,14.15 -4.76,19.8 -3.16,5.64 -7.62,10.02 -13.37,13.14 -5.76,3.09 -12.5,4.64 -20.24,4.64zm0 -10.7c5.23,0 9.79,-1.12 13.69,-3.38 3.89,-2.25 6.92,-5.37 9.08,-9.43 2.14,-4.03 3.22,-8.71 3.22,-14.07 0,-5.42 -1.08,-10.13 -3.22,-14.12 -2.16,-4.01 -5.19,-7.13 -9.08,-9.39 -3.9,-2.25 -8.46,-3.37 -13.69,-3.37 -5.22,0 -9.78,1.12 -13.69,3.37 -3.9,2.26 -6.92,5.38 -9.06,9.39 -2.15,3.99 -3.24,8.7 -3.24,14.12 0,5.36 1.09,10.04 3.24,14.07 2.14,4.06 5.16,7.18 9.06,9.43 3.91,2.26 8.47,3.38 13.69,3.38z"/>
   <path class="fil0" d="M1228.17 1981.81l0 -70.33 27.08 0c12.03,0 21.27,3.05 27.71,9.13 6.45,6.09 9.66,14.78 9.66,26.08 0,11.25 -3.21,19.91 -9.66,25.99 -6.44,6.08 -15.68,9.13 -27.71,9.13l-27.08 0 0 0zm12.09 -10.32l14.99 0c8.06,0 14.24,-2.14 18.54,-6.39 4.3,-4.26 6.44,-10.41 6.44,-18.41 0,-8.06 -2.14,-14.24 -6.44,-18.49 -4.3,-4.26 -10.48,-6.4 -18.54,-6.4l-14.99 0 0 49.69 0 0z"/>
   <path class="fil0" d="M1329.62 1981.81l26.37 -70.33 15.07 0 26.19 70.33 -12.99 0 -5.45 -15.37 -30.65 0 -5.57 15.37 -12.98 0 0.01 0zm21.22 -25l25.2 0 -12.4 -34.6 -0.2 0 -12.6 34.6 0 0z"/>
   <polygon class="fil0" points="1436.71,1981.81 1436.71,1911.48 1451.87,1911.48 1484.31,1966.62 1484.51,1966.62 1484.51,1911.48 1496.52,1911.48 1496.52,1981.81 1481.33,1981.81 1448.8,1926.85 1448.6,1926.85 1448.6,1981.81 "/>
   <polygon class="fil0" points="1540.93,1981.81 1540.93,1911.48 1553.23,1911.48 1553.23,1981.81 "/>
   <polygon class="fil0" points="1597.67,1981.81 1597.67,1911.48 1646.36,1911.48 1646.36,1921.79 1609.56,1921.79 1609.56,1940.95 1642.4,1940.95 1642.4,1950.36 1609.56,1950.36 1609.56,1971.49 1647.34,1971.49 1647.34,1981.81 "/>
   <polygon class="fil0" points="1688.29,1981.81 1688.29,1911.48 1700.59,1911.48 1700.59,1971.08 1733.32,1971.08 1733.32,1981.81 "/>
  </g>
 </g>
</svg>
